<svg xmlns="http://www.w3.org/2000/svg" xmlns:xlink="http://www.w3.org/1999/xlink" width="1920" zoomAndPan="magnify" viewBox="0 0 1440 809.999993" height="1080" preserveAspectRatio="xMidYMid meet" version="1.0"><defs><clipPath id="10afa7e68a"><path d="M 515.992188 132.632812 L 923.242188 132.632812 L 923.242188 676.382812 L 515.992188 676.382812 Z M 515.992188 132.632812 " clip-rule="nonzero"/></clipPath><clipPath id="b3b9fc538b"><path d="M 708.859375 135.484375 L 734.949219 135.484375 L 734.949219 159.265625 L 708.859375 159.265625 Z M 708.859375 135.484375 " clip-rule="nonzero"/></clipPath><clipPath id="9ef5536c9c"><path d="M 722.851562 135.976562 C 730.875 138.824219 731.625 139.648438 732.375 140.625 C 733.125 141.523438 733.800781 142.648438 734.175781 143.773438 C 734.625 144.898438 734.851562 146.175781 734.925781 147.375 C 734.925781 148.574219 734.773438 149.851562 734.398438 151.050781 C 734.101562 152.175781 733.5 153.375 732.824219 154.351562 C 732.074219 155.324219 731.175781 156.226562 730.199219 156.976562 C 729.226562 157.648438 728.101562 158.25 726.898438 158.625 C 725.773438 159 724.5 159.148438 723.300781 159.148438 C 722.101562 159.074219 720.824219 158.851562 719.699219 158.476562 C 718.5 158.023438 717.375 157.425781 716.476562 156.675781 C 715.5 155.851562 714.675781 154.949219 714 153.898438 C 713.324219 152.925781 712.800781 151.726562 712.5 150.523438 C 712.199219 149.324219 712.125 148.050781 712.199219 146.851562 C 712.273438 145.648438 712.574219 144.375 713.101562 143.324219 C 713.550781 142.199219 714.226562 141.074219 715.050781 140.175781 C 715.875 139.273438 716.851562 138.449219 717.898438 137.851562 C 718.949219 137.25 720.148438 136.800781 721.351562 136.574219 C 722.550781 136.351562 723.824219 136.351562 725.023438 136.5 C 726.226562 136.648438 727.5 137.023438 728.550781 137.550781 C 729.675781 138.074219 730.726562 138.824219 731.550781 139.648438 C 732.449219 140.550781 733.199219 141.601562 733.726562 142.648438 C 734.25 143.773438 734.625 144.976562 734.773438 146.175781 C 735 147.375 734.925781 148.648438 734.699219 149.851562 C 734.476562 151.050781 734.023438 152.25 733.5 153.300781 C 732.898438 154.351562 732.074219 155.398438 731.175781 156.148438 C 730.273438 156.976562 729.226562 157.726562 728.101562 158.175781 C 726.976562 158.625 725.699219 159 724.5 159.074219 C 723.300781 159.148438 722.25 159.148438 720.824219 158.773438 C 718.648438 158.25 714.601562 156.976562 712.726562 155.398438 C 711.226562 154.199219 710.25 152.550781 709.648438 150.976562 C 708.976562 149.324219 708.75 147.300781 708.976562 145.574219 C 709.199219 143.851562 709.875 141.976562 710.851562 140.550781 C 711.824219 139.050781 713.324219 137.773438 714.898438 136.949219 C 716.476562 136.125 718.648438 135.75 720.148438 135.601562 C 721.199219 135.601562 722.851562 135.976562 722.851562 135.976562 " clip-rule="nonzero"/></clipPath><clipPath id="77c8c882a2"><path d="M 0.859375 0.484375 L 26.949219 0.484375 L 26.949219 24.265625 L 0.859375 24.265625 Z M 0.859375 0.484375 " clip-rule="nonzero"/></clipPath><clipPath id="a461d595c2"><path d="M 14.851562 0.976562 C 22.875 3.824219 23.625 4.648438 24.375 5.625 C 25.125 6.523438 25.800781 7.648438 26.175781 8.773438 C 26.625 9.898438 26.851562 11.175781 26.925781 12.375 C 26.925781 13.574219 26.773438 14.851562 26.398438 16.050781 C 26.101562 17.175781 25.5 18.375 24.824219 19.351562 C 24.074219 20.324219 23.175781 21.226562 22.199219 21.976562 C 21.226562 22.648438 20.101562 23.25 18.898438 23.625 C 17.773438 24 16.5 24.148438 15.300781 24.148438 C 14.101562 24.074219 12.824219 23.851562 11.699219 23.476562 C 10.5 23.023438 9.375 22.425781 8.476562 21.675781 C 7.5 20.851562 6.675781 19.949219 6 18.898438 C 5.324219 17.925781 4.800781 16.726562 4.5 15.523438 C 4.199219 14.324219 4.125 13.050781 4.199219 11.851562 C 4.273438 10.648438 4.574219 9.375 5.101562 8.324219 C 5.550781 7.199219 6.226562 6.074219 7.050781 5.175781 C 7.875 4.273438 8.851562 3.449219 9.898438 2.851562 C 10.949219 2.25 12.148438 1.800781 13.351562 1.574219 C 14.550781 1.351562 15.824219 1.351562 17.023438 1.5 C 18.226562 1.648438 19.5 2.023438 20.550781 2.550781 C 21.675781 3.074219 22.726562 3.824219 23.550781 4.648438 C 24.449219 5.550781 25.199219 6.601562 25.726562 7.648438 C 26.25 8.773438 26.625 9.976562 26.773438 11.175781 C 27 12.375 26.925781 13.648438 26.699219 14.851562 C 26.476562 16.050781 26.023438 17.25 25.5 18.300781 C 24.898438 19.351562 24.074219 20.398438 23.175781 21.148438 C 22.273438 21.976562 21.226562 22.726562 20.101562 23.175781 C 18.976562 23.625 17.699219 24 16.5 24.074219 C 15.300781 24.148438 14.25 24.148438 12.824219 23.773438 C 10.648438 23.25 6.601562 21.976562 4.726562 20.398438 C 3.226562 19.199219 2.25 17.550781 1.648438 15.976562 C 0.976562 14.324219 0.75 12.300781 0.976562 10.574219 C 1.199219 8.851562 1.875 6.976562 2.851562 5.550781 C 3.824219 4.050781 5.324219 2.773438 6.898438 1.949219 C 8.476562 1.125 10.648438 0.75 12.148438 0.601562 C 13.199219 0.601562 14.851562 0.976562 14.851562 0.976562 " clip-rule="nonzero"/></clipPath><clipPath id="c0491bb8f9"><rect x="0" width="27" y="0" height="25"/></clipPath></defs><g clip-path="url(#10afa7e68a)"><path fill="#ffffff" d="M 923.207031 613.222656 L 896.160156 613.222656 L 922.253906 676.519531 L 889.414062 676.519531 L 863.320312 613.222656 L 613.261719 613.222656 L 724.175781 353.351562 L 740.105469 393.398438 L 659.25 582.851562 L 923.21875 582.851562 L 923.21875 613.222656 Z M 838.363281 552.695312 L 871.214844 552.695312 L 773.386719 315.394531 L 851.386719 132.648438 L 515.992188 132.648438 L 515.992188 163.015625 L 805.398438 163.015625 L 757.152344 276.050781 L 720.742188 187.734375 L 516.660156 675.730469 L 720.902344 675.730469 L 720.902344 645.359375 L 562.28125 645.359375 L 720.539062 266.914062 Z M 838.363281 552.695312 " fill-opacity="1" fill-rule="nonzero"/></g><g clip-path="url(#b3b9fc538b)"><g clip-path="url(#9ef5536c9c)"><g transform="matrix(1, 0, 0, 1, 708, 135)"><g clip-path="url(#c0491bb8f9)"><g clip-path="url(#77c8c882a2)"><g clip-path="url(#a461d595c2)"><rect x="-1024.8" width="2073.6" fill="#ffffff" height="1166.39999" y="-313.199998" fill-opacity="1"/></g></g></g></g></g></g></svg>