<svg xmlns="http://www.w3.org/2000/svg" xmlns:xlink="http://www.w3.org/1999/xlink" width="434" zoomAndPan="magnify" viewBox="0 0 325.5 258.749997" height="345" preserveAspectRatio="xMidYMid meet" version="1.0"><defs><clipPath id="81d6664e83"><path d="M 0 0.0742188 L 325 0.0742188 L 325 258.363281 L 0 258.363281 Z M 0 0.0742188 " clip-rule="nonzero"/></clipPath><clipPath id="7db83efcb4"><path d="M 34.03125 69.496094 L 152.773438 69.496094 L 152.773438 220.34375 L 34.03125 220.34375 Z M 34.03125 69.496094 " clip-rule="nonzero"/></clipPath><clipPath id="2e26f65c01"><path d="M 106.355469 32.242188 L 247 32.242188 L 247 220.34375 L 106.355469 220.34375 Z M 106.355469 32.242188 " clip-rule="nonzero"/></clipPath><clipPath id="7e4bce7273"><path d="M 206 107 L 287.269531 107 L 287.269531 220.34375 L 206 220.34375 Z M 206 107 " clip-rule="nonzero"/></clipPath><clipPath id="6c595ce36c"><path d="M 86.191406 147.429688 L 134.960938 147.429688 L 134.960938 171.015625 L 86.191406 171.015625 Z M 86.191406 147.429688 " clip-rule="nonzero"/></clipPath><clipPath id="8df87f176c"><path d="M 117.585938 144.363281 L 146.484375 144.363281 L 146.484375 179.519531 L 117.585938 179.519531 Z M 117.585938 144.363281 " clip-rule="nonzero"/></clipPath><clipPath id="4a78f65cdb"><path d="M 134.085938 144.433594 L 146.351562 151.675781 L 129.972656 179.414062 L 117.710938 172.171875 Z M 134.085938 144.433594 " clip-rule="nonzero"/></clipPath><clipPath id="54509b84ed"><path d="M 134.085938 144.433594 L 146.351562 151.675781 L 129.972656 179.414062 L 117.710938 172.171875 Z M 134.085938 144.433594 " clip-rule="nonzero"/></clipPath><clipPath id="3df6327004"><path d="M 189.382812 147.429688 L 233 147.429688 L 233 171.015625 L 189.382812 171.015625 Z M 189.382812 147.429688 " clip-rule="nonzero"/></clipPath><clipPath id="10c37801be"><path d="M 180 143.402344 L 208.921875 143.402344 L 208.921875 178.800781 L 180 178.800781 Z M 180 143.402344 " clip-rule="nonzero"/></clipPath><clipPath id="a9e8517709"><path d="M 180.066406 150.777344 L 192.835938 143.449219 L 208.867188 171.386719 L 196.097656 178.71875 Z M 180.066406 150.777344 " clip-rule="nonzero"/></clipPath><clipPath id="382dee4d29"><path d="M 180.066406 150.777344 L 192.835938 143.449219 L 208.863281 171.386719 L 196.097656 178.71875 Z M 180.066406 150.777344 " clip-rule="nonzero"/></clipPath><clipPath id="3c5e7b1075"><path d="M 180 159.753906 L 198.773438 159.753906 L 198.773438 179.519531 L 180 179.519531 Z M 180 159.753906 " clip-rule="nonzero"/></clipPath><clipPath id="24701a8573"><path d="M 180.066406 166.207031 L 191.121094 159.863281 L 198.695312 173.066406 L 187.640625 179.410156 Z M 180.066406 166.207031 " clip-rule="nonzero"/></clipPath><clipPath id="fcd3467702"><path d="M 180.066406 166.207031 L 191.121094 159.863281 L 198.695312 173.066406 L 187.640625 179.410156 Z M 180.066406 166.207031 " clip-rule="nonzero"/></clipPath></defs><g clip-path="url(#81d6664e83)"><rect x="-32.55" width="390.6" fill="#141921" y="-25.875" height="310.499996" fill-opacity="1"/></g><g clip-path="url(#7db83efcb4)"><path fill="#ffffff" d="M 120.648438 69.945312 C 113.765625 81.882812 112.175781 84.605469 110.605469 87.320312 C 95.21875 113.988281 79.847656 140.664062 49.222656 194.003906 L 49.085938 194.003906 C 44.609375 201.769531 40.121094 209.527344 35.664062 217.304688 C 35.105469 218.277344 34.203125 219.472656 34.421875 220.289062 L 65.820312 220.289062 C 66.324219 219.746094 66.699219 219.046875 67.097656 218.351562 C 68.460938 215.988281 69.84375 213.632812 71.222656 211.273438 L 71.4375 211.273438 C 101.976562 157.964844 112.082031 140.40625 122.207031 122.851562 C 129.050781 110.980469 135.933594 99.105469 152.710938 69.945312 Z M 120.648438 69.945312 " fill-opacity="1" fill-rule="nonzero"/></g><g clip-path="url(#2e26f65c01)"><path fill="#ffffff" d="M 153.875 194.003906 C 168.113281 169.488281 176.789062 154.480469 183.292969 143.234375 L 184.921875 140.402344 L 246.984375 32.242188 L 142.351562 32.242188 C 140.445312 35.550781 138.667969 38.644531 137.007812 41.542969 C 135.699219 43.558594 134.40625 45.59375 133.277344 47.730469 C 132.40625 49.355469 131.535156 50.96875 130.648438 52.578125 C 129.972656 53.753906 129.324219 54.886719 128.695312 55.976562 L 201.6875 55.976562 C 189.292969 77.453125 188.261719 79.242188 187.246094 81 C 168.980469 112.519531 150.710938 144.03125 107.808594 217.882812 L 107.835938 217.882812 C 107.730469 218.058594 107.632812 218.246094 107.515625 218.425781 C 107.054688 219.210938 106.808594 219.804688 106.710938 220.28125 L 217.640625 220.28125 L 202.546875 193.996094 L 153.875 193.996094 Z M 153.875 194.003906 " fill-opacity="1" fill-rule="nonzero"/></g><g clip-path="url(#7e4bce7273)"><path fill="#ffffff" d="M 286.265625 218.730469 C 286.179688 218.542969 286.070312 218.351562 285.964844 218.160156 C 283.652344 214.035156 281.355469 209.90625 278.996094 205.808594 C 276.726562 201.878906 274.449219 197.945312 272.175781 194.007812 L 272.058594 194.007812 C 246.714844 149.953125 233.289062 126.6875 222.050781 107.261719 L 206.035156 135.175781 C 214.484375 149.773438 226.429688 170.480469 255.035156 220.292969 L 287.167969 220.292969 C 286.863281 219.757812 286.570312 219.246094 286.265625 218.730469 Z M 286.265625 218.730469 " fill-opacity="1" fill-rule="nonzero"/></g><g clip-path="url(#6c595ce36c)"><path fill="#ffffff" d="M 86.191406 147.429688 L 134.9375 147.429688 L 134.9375 171.015625 L 86.191406 171.015625 Z M 86.191406 147.429688 " fill-opacity="1" fill-rule="nonzero"/></g><g clip-path="url(#8df87f176c)"><g clip-path="url(#4a78f65cdb)"><g clip-path="url(#54509b84ed)"><path fill="#141921" d="M 134.085938 144.433594 L 146.351562 151.675781 L 129.972656 179.414062 L 117.710938 172.175781 Z M 134.085938 144.433594 " fill-opacity="1" fill-rule="nonzero"/></g></g></g><g clip-path="url(#3df6327004)"><path fill="#ffffff" d="M 189.382812 147.429688 L 232.964844 147.429688 L 232.964844 171.015625 L 189.382812 171.015625 Z M 189.382812 147.429688 " fill-opacity="1" fill-rule="nonzero"/></g><g clip-path="url(#10c37801be)"><g clip-path="url(#a9e8517709)"><g clip-path="url(#382dee4d29)"><path fill="#141921" d="M 180.066406 150.777344 L 192.835938 143.449219 L 208.863281 171.382812 L 196.09375 178.710938 Z M 180.066406 150.777344 " fill-opacity="1" fill-rule="nonzero"/></g></g></g><g clip-path="url(#3c5e7b1075)"><g clip-path="url(#24701a8573)"><g clip-path="url(#fcd3467702)"><path fill="#141921" d="M 180.066406 166.207031 L 191.121094 159.863281 L 198.703125 173.074219 L 187.648438 179.417969 Z M 180.066406 166.207031 " fill-opacity="1" fill-rule="nonzero"/></g></g></g></svg>