<svg xmlns="http://www.w3.org/2000/svg" xmlns:xlink="http://www.w3.org/1999/xlink" width="1920" zoomAndPan="magnify" viewBox="0 0 1440 809.999993" height="1080" preserveAspectRatio="xMidYMid meet" version="1.0"><defs><clipPath id="b74450d743"><path d="M 515.992188 132.632812 L 923.242188 132.632812 L 923.242188 676.382812 L 515.992188 676.382812 Z M 515.992188 132.632812 " clip-rule="nonzero"/></clipPath><clipPath id="9822d41e0b"><path d="M 626.171875 136.273438 L 664.398438 136.273438 L 664.398438 160.351562 L 626.171875 160.351562 Z M 626.171875 136.273438 " clip-rule="nonzero"/></clipPath><clipPath id="32efaf3c75"><path d="M 638.699219 136.351562 C 658.050781 137.925781 658.800781 138.523438 659.773438 139.273438 C 660.75 140.023438 661.726562 141 662.398438 142.050781 C 663.074219 143.101562 663.601562 144.300781 663.976562 145.5 C 664.273438 146.699219 664.425781 147.976562 664.351562 149.25 C 664.273438 150.523438 663.976562 151.800781 663.523438 152.925781 C 663.074219 154.125 662.398438 155.25 661.574219 156.148438 C 660.75 157.125 659.773438 157.949219 658.648438 158.625 C 657.601562 159.226562 656.398438 159.75 655.125 160.050781 C 653.925781 160.273438 652.574219 160.351562 651.375 160.199219 C 650.101562 160.050781 648.824219 159.675781 647.699219 159.148438 C 646.574219 158.625 645.523438 157.875 644.625 157.050781 C 643.726562 156.148438 642.898438 155.101562 642.300781 154.050781 C 641.699219 152.925781 641.324219 151.648438 641.101562 150.449219 C 640.949219 149.175781 640.949219 147.898438 641.101562 146.625 C 641.324219 145.425781 641.773438 144.148438 642.375 143.023438 C 642.976562 141.976562 643.726562 140.925781 644.625 140.023438 C 645.523438 139.199219 646.648438 138.449219 647.773438 137.925781 C 648.898438 137.398438 650.175781 137.023438 651.449219 136.949219 C 652.648438 136.800781 654 136.875 655.199219 137.175781 C 656.476562 137.398438 657.675781 137.925781 658.726562 138.601562 C 659.773438 139.199219 660.824219 140.101562 661.648438 141 C 662.398438 141.976562 663.074219 143.101562 663.601562 144.300781 C 664.050781 145.425781 664.273438 146.699219 664.351562 147.976562 C 664.425781 149.25 664.273438 150.523438 663.976562 151.726562 C 663.601562 152.925781 663.074219 154.125 662.324219 155.175781 C 661.648438 156.226562 660.75 157.199219 659.699219 157.949219 C 658.726562 158.699219 657.523438 159.300781 656.398438 159.675781 C 655.199219 160.050781 654.226562 160.199219 652.648438 160.273438 C 650.023438 160.425781 645.226562 160.050781 641.925781 159.675781 C 639.074219 159.375 635.851562 159.148438 633.976562 158.550781 C 632.851562 158.25 632.324219 157.949219 631.5 157.351562 C 630.300781 156.449219 628.574219 154.949219 627.75 153.375 C 626.851562 151.800781 626.324219 149.851562 626.25 148.125 C 626.175781 146.324219 626.851562 144.148438 627.375 142.726562 C 627.824219 141.75 628.125 141.226562 628.875 140.476562 C 629.925781 139.351562 631.648438 137.851562 633.300781 137.175781 C 634.949219 136.5 638.699219 136.351562 638.699219 136.351562 " clip-rule="nonzero"/></clipPath><clipPath id="7898648860"><path d="M 0.171875 0.320312 L 38.398438 0.320312 L 38.398438 24.351562 L 0.171875 24.351562 Z M 0.171875 0.320312 " clip-rule="nonzero"/></clipPath><clipPath id="adb5ddb5a4"><path d="M 12.699219 0.351562 C 32.050781 1.925781 32.800781 2.523438 33.773438 3.273438 C 34.75 4.023438 35.726562 5 36.398438 6.050781 C 37.074219 7.101562 37.601562 8.300781 37.976562 9.5 C 38.273438 10.699219 38.425781 11.976562 38.351562 13.25 C 38.273438 14.523438 37.976562 15.800781 37.523438 16.925781 C 37.074219 18.125 36.398438 19.25 35.574219 20.148438 C 34.75 21.125 33.773438 21.949219 32.648438 22.625 C 31.601562 23.226562 30.398438 23.75 29.125 24.050781 C 27.925781 24.273438 26.574219 24.351562 25.375 24.199219 C 24.101562 24.050781 22.824219 23.675781 21.699219 23.148438 C 20.574219 22.625 19.523438 21.875 18.625 21.050781 C 17.726562 20.148438 16.898438 19.101562 16.300781 18.050781 C 15.699219 16.925781 15.324219 15.648438 15.101562 14.449219 C 14.949219 13.175781 14.949219 11.898438 15.101562 10.625 C 15.324219 9.425781 15.773438 8.148438 16.375 7.023438 C 16.976562 5.976562 17.726562 4.925781 18.625 4.023438 C 19.523438 3.199219 20.648438 2.449219 21.773438 1.925781 C 22.898438 1.398438 24.175781 1.023438 25.449219 0.949219 C 26.648438 0.800781 28 0.875 29.199219 1.175781 C 30.476562 1.398438 31.675781 1.925781 32.726562 2.601562 C 33.773438 3.199219 34.824219 4.101562 35.648438 5 C 36.398438 5.976562 37.074219 7.101562 37.601562 8.300781 C 38.050781 9.425781 38.273438 10.699219 38.351562 11.976562 C 38.425781 13.25 38.273438 14.523438 37.976562 15.726562 C 37.601562 16.925781 37.074219 18.125 36.324219 19.175781 C 35.648438 20.226562 34.75 21.199219 33.699219 21.949219 C 32.726562 22.699219 31.523438 23.300781 30.398438 23.675781 C 29.199219 24.050781 28.226562 24.199219 26.648438 24.273438 C 24.023438 24.425781 19.226562 24.050781 15.925781 23.675781 C 13.074219 23.375 9.851562 23.148438 7.976562 22.550781 C 6.851562 22.25 6.324219 21.949219 5.5 21.351562 C 4.300781 20.449219 2.574219 18.949219 1.75 17.375 C 0.851562 15.800781 0.324219 13.851562 0.25 12.125 C 0.175781 10.324219 0.851562 8.148438 1.375 6.726562 C 1.824219 5.75 2.125 5.226562 2.875 4.476562 C 3.925781 3.351562 5.648438 1.851562 7.300781 1.175781 C 8.949219 0.5 12.699219 0.351562 12.699219 0.351562 " clip-rule="nonzero"/></clipPath><clipPath id="d96a622648"><rect x="0" width="39" y="0" height="25"/></clipPath></defs><rect x="-144" width="1728" fill="#ffffff" y="-80.999999" height="971.999992" fill-opacity="1"/><g clip-path="url(#b74450d743)"><path fill="#000000" d="M 923.21875 613.097656 L 896.167969 613.097656 L 922.265625 676.378906 L 889.425781 676.378906 L 863.328125 613.097656 L 613.261719 613.097656 L 724.179688 353.292969 L 740.113281 393.328125 L 659.253906 582.734375 L 923.230469 582.734375 L 923.230469 613.097656 Z M 838.371094 552.585938 L 871.226562 552.585938 L 773.390625 315.347656 L 851.394531 132.648438 L 515.992188 132.648438 L 515.992188 163.007812 L 805.40625 163.007812 L 757.160156 276.015625 L 720.746094 187.71875 L 516.660156 675.589844 L 720.910156 675.589844 L 720.910156 645.226562 L 562.285156 645.226562 L 720.546875 266.878906 Z M 838.371094 552.585938 " fill-opacity="1" fill-rule="nonzero"/></g><g clip-path="url(#9822d41e0b)"><g clip-path="url(#32efaf3c75)"><g transform="matrix(1, 0, 0, 1, 626, 136)"><g clip-path="url(#d96a622648)"><g clip-path="url(#7898648860)"><g clip-path="url(#adb5ddb5a4)"><rect x="-942.8" width="2073.6" fill="#000000" height="1166.39999" y="-314.199998" fill-opacity="1"/></g></g></g></g></g></g></svg>