<svg xmlns="http://www.w3.org/2000/svg" xmlns:xlink="http://www.w3.org/1999/xlink" width="1920" zoomAndPan="magnify" viewBox="0 0 1440 809.999993" height="1080" preserveAspectRatio="xMidYMid meet" version="1.0"><defs><clipPath id="cdeac68e84"><path d="M 1.128906 0.9375 L 704.644531 0.9375 L 704.644531 704.449219 L 1.128906 704.449219 Z M 1.128906 0.9375 " clip-rule="nonzero"/></clipPath><clipPath id="95737d848b"><path d="M 352.886719 0.9375 C 158.617188 0.9375 1.128906 158.425781 1.128906 352.695312 C 1.128906 546.964844 158.617188 704.449219 352.886719 704.449219 C 547.15625 704.449219 704.644531 546.964844 704.644531 352.695312 C 704.644531 158.425781 547.15625 0.9375 352.886719 0.9375 Z M 352.886719 0.9375 " clip-rule="nonzero"/></clipPath><clipPath id="543e8d8811"><path d="M 0.128906 0.9375 L 703.644531 0.9375 L 703.644531 704.449219 L 0.128906 704.449219 Z M 0.128906 0.9375 " clip-rule="nonzero"/></clipPath><clipPath id="eadaf1aa4e"><path d="M 351.886719 0.9375 C 157.617188 0.9375 0.128906 158.425781 0.128906 352.695312 C 0.128906 546.964844 157.617188 704.449219 351.886719 704.449219 C 546.15625 704.449219 703.644531 546.964844 703.644531 352.695312 C 703.644531 158.425781 546.15625 0.9375 351.886719 0.9375 Z M 351.886719 0.9375 " clip-rule="nonzero"/></clipPath><clipPath id="6df748757d"><rect x="0" width="704" y="0" height="705"/></clipPath><clipPath id="d6a0676cd0"><path d="M 192.570312 138.578125 L 513.09375 138.578125 L 513.09375 566.65625 L 192.570312 566.65625 Z M 192.570312 138.578125 " clip-rule="nonzero"/></clipPath><clipPath id="2d1698fbe7"><rect x="0" width="705" y="0" height="705"/></clipPath></defs><g transform="matrix(1, 0, 0, 1, 366, 52)"><g clip-path="url(#2d1698fbe7)"><g clip-path="url(#cdeac68e84)"><g clip-path="url(#95737d848b)"><g transform="matrix(1, 0, 0, 1, 1, 0.000000000000042633)"><g clip-path="url(#6df748757d)"><g clip-path="url(#543e8d8811)"><g clip-path="url(#eadaf1aa4e)"><path fill="#000000" d="M 0.128906 0.9375 L 703.644531 0.9375 L 703.644531 704.449219 L 0.128906 704.449219 Z M 0.128906 0.9375 " fill-opacity="1" fill-rule="nonzero"/></g></g></g></g></g></g><g clip-path="url(#d6a0676cd0)"><path fill="#ffffff" d="M 513.183594 516.96875 L 491.886719 516.96875 L 512.433594 566.804688 L 486.578125 566.804688 L 466.03125 516.96875 L 269.148438 516.96875 L 356.476562 312.359375 L 369.019531 343.890625 L 305.359375 493.054688 L 513.191406 493.054688 L 513.191406 516.96875 Z M 446.382812 469.3125 L 472.246094 469.3125 L 395.222656 282.476562 L 456.636719 138.59375 L 192.570312 138.59375 L 192.570312 162.503906 L 420.425781 162.503906 L 382.441406 251.5 L 353.773438 181.964844 L 193.09375 566.183594 L 353.902344 566.183594 L 353.902344 542.269531 L 229.015625 542.269531 L 353.617188 244.304688 Z M 446.382812 469.3125 " fill-opacity="1" fill-rule="nonzero"/></g></g></g></svg>